<svg width="101" height="24" viewBox="0 0 101 24" fill="none" xmlns="http://www.w3.org/2000/svg">
<g filter="url(#filter0_i_1_304)">
<path d="M0 20.2549C0 13.7103 0 7.22532 0 0.740356C0.991909 0.740356 1.98382 0.740356 2.97573 0.740356C2.96446 3.27471 2.97573 5.83888 2.97573 8.41796C4.92573 8.43286 6.87573 8.43286 8.82574 8.43286C8.81446 5.85379 8.81446 3.28962 8.81446 0.740356C9.81765 0.740356 10.8208 0.740356 11.8127 0.740356C11.8127 7.24023 11.8015 13.755 11.8015 20.2847C10.8096 20.2847 9.7951 20.2698 8.82574 20.2549C8.81446 17.4075 8.80319 14.5302 8.81446 11.7126C6.87573 11.7424 4.89192 11.7424 2.97573 11.7424C2.97573 14.5302 2.96446 17.4075 2.97573 20.2698C1.98382 20.2549 0.980637 20.24 0 20.2549Z" fill="#1EAB5F"/>
</g>
<path d="M5.90704 15.5488C6.94819 15.4634 7.99341 15.3682 9.04269 15.2631C9.2379 16.5143 9.61613 17.4404 10.1896 18.0611C10.7752 18.6719 11.5561 18.9872 12.5322 18.997C13.5692 18.9872 14.3501 18.6916 14.8747 18.1596C15.4116 17.598 15.6678 16.9774 15.6678 16.2877C15.6678 15.8444 15.558 15.47 15.3384 15.1547C15.1188 14.8395 14.7283 14.5636 14.1793 14.337C13.8011 14.1794 12.9348 13.9035 11.5927 13.5094C9.86015 13.007 8.65226 12.3962 7.9568 11.6868C6.96853 10.7115 6.48049 9.50953 6.48049 8.04158C6.48049 7.07608 6.71231 6.14014 7.16374 5.21405C7.62738 4.2387 8.29843 3.43083 9.1647 2.82986C10.031 2.20918 11.0802 1.87421 12.3125 1.82495C14.3257 1.91362 15.8264 2.68208 16.8391 3.9924C17.8518 5.25345 18.3886 6.75096 18.4374 8.49477C17.3637 8.45536 16.29 8.42581 15.2164 8.4061C15.0822 7.4012 14.7771 6.65244 14.3257 6.17954C13.8743 5.6968 13.191 5.44064 12.2759 5.43079C11.3487 5.45049 10.6044 5.72635 10.0798 6.2288C9.73814 6.57363 9.56733 6.99726 9.56733 7.51942C9.56733 7.98246 9.72594 8.35684 10.0432 8.6721C10.458 9.07604 11.4463 9.47997 13.008 9.94302C14.5819 10.4061 15.741 10.9085 16.4853 11.4011C17.2417 11.8839 17.8396 12.5144 18.2544 13.3124C18.6814 14.0907 18.9011 15.0365 18.9011 16.1695C18.9011 17.204 18.6448 18.199 18.1324 19.1744C17.6322 20.1596 16.9123 20.9576 15.9728 21.529C15.0456 22.1004 13.8865 22.4255 12.4956 22.4551C10.4824 22.396 8.92068 21.6866 7.84699 20.4256C6.76111 19.2039 6.11446 17.5882 5.90704 15.5488Z" fill="#1EAB5F"/>
<path d="M28.8367 10.1903C28.8367 10.3653 28.8367 10.4528 28.8938 10.4972C28.9509 10.5416 29.0358 10.5201 29.2054 10.4769L58.4198 3.04842C58.6615 2.98697 58.7823 2.95624 58.9057 2.95624C59.0291 2.95624 59.1499 2.98697 59.3916 3.04842L88.6061 10.4769C88.7757 10.5201 88.8605 10.5416 88.9176 10.4972C88.9747 10.4528 88.9747 10.3653 88.9747 10.1903V9.91927C88.9747 9.18278 88.9747 8.81454 88.7671 8.54756C88.5595 8.28059 88.2026 8.18984 87.4889 8.00835L59.3916 0.863909C59.1499 0.802455 59.0291 0.771728 58.9057 0.771728C58.7823 0.771728 58.6615 0.802455 58.4198 0.863909L30.3226 8.00835C29.6088 8.18984 29.2519 8.28059 29.0443 8.54756C28.8367 8.81454 28.8367 9.18278 28.8367 9.91927V10.1903Z" fill="#1EAB5F"/>
<rect x="71.7924" y="0.740356" width="2.86371" height="4.91516" rx="0.492934" fill="#1EAB5F"/>
<path d="M27.6453 13.7561C28.1943 13.7561 28.6748 13.8634 29.0866 14.0778C29.5069 14.2837 29.8329 14.6011 30.0646 15.0301C30.3048 15.459 30.4249 15.9995 30.4249 16.6515V20.5764H29.5112V16.7416C29.5112 16.0295 29.3311 15.4933 28.9707 15.133C28.619 14.7641 28.1214 14.5797 27.478 14.5797C26.9976 14.5797 26.5772 14.6784 26.2169 14.8757C25.8652 15.0644 25.5906 15.3432 25.3933 15.7121C25.2046 16.0724 25.1102 16.51 25.1102 17.0247V20.5764H24.1966V11.028H25.1102V15.6735L24.9301 15.3261C25.1445 14.8371 25.4877 14.4553 25.9595 14.1808C26.4314 13.8977 26.9933 13.7561 27.6453 13.7561ZM35.6466 20.6407C34.9946 20.6407 34.407 20.4949 33.8836 20.2032C33.3689 19.9029 32.9614 19.4954 32.6611 18.9807C32.3609 18.4574 32.2108 17.8611 32.2108 17.192C32.2108 16.5142 32.3609 15.918 32.6611 15.4033C32.9614 14.8885 33.3689 14.4853 33.8836 14.1936C34.3984 13.902 34.986 13.7561 35.6466 13.7561C36.3158 13.7561 36.9077 13.902 37.4224 14.1936C37.9458 14.4853 38.3533 14.8885 38.6449 15.4033C38.9452 15.918 39.0953 16.5142 39.0953 17.192C39.0953 17.8611 38.9452 18.4574 38.6449 18.9807C38.3533 19.4954 37.9458 19.9029 37.4224 20.2032C36.8991 20.4949 36.3072 20.6407 35.6466 20.6407ZM35.6466 19.83C36.1356 19.83 36.5688 19.7228 36.9463 19.5083C37.3238 19.2852 37.6198 18.9764 37.8342 18.5818C38.0573 18.1785 38.1688 17.7153 38.1688 17.192C38.1688 16.6601 38.0573 16.1968 37.8342 15.8022C37.6198 15.4076 37.3238 15.103 36.9463 14.8885C36.5688 14.6655 36.1399 14.554 35.6595 14.554C35.1791 14.554 34.7501 14.6655 34.3726 14.8885C33.9952 15.103 33.6949 15.4076 33.4719 15.8022C33.2488 16.1968 33.1373 16.6601 33.1373 17.192C33.1373 17.7153 33.2488 18.1785 33.4719 18.5818C33.6949 18.9764 33.9952 19.2852 34.3726 19.5083C34.7501 19.7228 35.1748 19.83 35.6466 19.83ZM43.7531 20.6407C43.1783 20.6407 42.6764 20.5335 42.2475 20.319C41.8185 20.1045 41.484 19.7828 41.2437 19.3539C41.0121 18.9249 40.8963 18.3887 40.8963 17.7453V13.8205H41.81V17.6424C41.81 18.363 41.9858 18.9078 42.3376 19.2766C42.6979 19.637 43.1997 19.8171 43.8432 19.8171C44.315 19.8171 44.7225 19.7228 45.0657 19.534C45.4174 19.3367 45.6833 19.0536 45.8635 18.6847C46.0522 18.3158 46.1466 17.874 46.1466 17.3593V13.8205H47.0602V20.5764H46.1852V18.7233L46.3268 19.0579C46.1123 19.5555 45.7777 19.9458 45.323 20.2289C44.8769 20.5034 44.3536 20.6407 43.7531 20.6407ZM51.421 20.6407C50.8634 20.6407 50.3358 20.5635 49.8382 20.4091C49.3406 20.2461 48.9503 20.0445 48.6672 19.8043L49.079 19.0836C49.3535 19.2895 49.7052 19.4697 50.1342 19.6241C50.5631 19.7699 51.0135 19.8429 51.4854 19.8429C52.1288 19.8429 52.592 19.7442 52.8751 19.5469C53.1582 19.341 53.2998 19.0708 53.2998 18.7362C53.2998 18.4874 53.2183 18.2944 53.0553 18.1571C52.9009 18.0113 52.695 17.904 52.4376 17.8354C52.1803 17.7582 51.8929 17.6938 51.5754 17.6424C51.258 17.5909 50.9406 17.5308 50.6232 17.4622C50.3143 17.3936 50.0312 17.2949 49.7739 17.1662C49.5165 17.029 49.3063 16.8445 49.1433 16.6129C48.9889 16.3813 48.9117 16.0724 48.9117 15.6864C48.9117 15.3175 49.0146 14.9872 49.2205 14.6955C49.4264 14.4038 49.7267 14.1765 50.1213 14.0135C50.5245 13.8419 51.0135 13.7561 51.5883 13.7561C52.0258 13.7561 52.4634 13.8162 52.9009 13.9363C53.3384 14.0478 53.6987 14.1979 53.9818 14.3867L53.5829 15.1202C53.2826 14.9143 52.9609 14.7684 52.6178 14.6826C52.2746 14.5883 51.9315 14.5411 51.5883 14.5411C50.9792 14.5411 50.5288 14.6483 50.2371 14.8628C49.954 15.0687 49.8125 15.3346 49.8125 15.6606C49.8125 15.918 49.8897 16.1196 50.0441 16.2655C50.2071 16.4113 50.4173 16.5271 50.6747 16.6129C50.9406 16.6901 51.228 16.7544 51.5368 16.8059C51.8543 16.8574 52.1674 16.9217 52.4762 16.9989C52.7936 17.0676 53.081 17.1662 53.3384 17.2949C53.6044 17.415 53.8145 17.5909 53.969 17.8225C54.132 18.0456 54.2135 18.3415 54.2135 18.7104C54.2135 19.1051 54.1019 19.4482 53.8789 19.7399C53.6644 20.023 53.347 20.2461 52.9266 20.4091C52.5148 20.5635 52.013 20.6407 51.421 20.6407ZM58.7596 20.6407C58.0561 20.6407 57.4385 20.4949 56.9066 20.2032C56.3747 19.9029 55.9586 19.4954 55.6583 18.9807C55.3581 18.4574 55.2079 17.8611 55.2079 17.192C55.2079 16.5228 55.3495 15.9309 55.6326 15.4161C55.9243 14.9014 56.3189 14.4982 56.8165 14.2065C57.3226 13.9062 57.8888 13.7561 58.5151 13.7561C59.1499 13.7561 59.7119 13.902 60.2009 14.1936C60.6984 14.4767 61.0888 14.88 61.3719 15.4033C61.655 15.918 61.7965 16.5142 61.7965 17.192C61.7965 17.2349 61.7923 17.2821 61.7837 17.3335C61.7837 17.3764 61.7837 17.4236 61.7837 17.4751H55.9028V16.7931H61.2947L60.9344 17.0633C60.9344 16.5743 60.8271 16.1411 60.6127 15.7636C60.4068 15.3775 60.1237 15.0773 59.7633 14.8628C59.403 14.6483 58.9869 14.5411 58.5151 14.5411C58.0518 14.5411 57.6358 14.6483 57.2669 14.8628C56.898 15.0773 56.6106 15.3775 56.4047 15.7636C56.1988 16.1496 56.0959 16.5914 56.0959 17.089V17.2306C56.0959 17.7453 56.2074 18.2 56.4304 18.5946C56.6621 18.9807 56.9795 19.2852 57.3827 19.5083C57.7945 19.7228 58.262 19.83 58.7853 19.83C59.1971 19.83 59.5789 19.7571 59.9306 19.6112C60.2909 19.4654 60.5998 19.2423 60.8572 18.9421L61.3719 19.534C61.0716 19.8943 60.6942 20.1689 60.2395 20.3576C59.7934 20.5463 59.3001 20.6407 58.7596 20.6407ZM63.28 17.4879V16.6901H66.6515V17.4879H63.28ZM70.5099 20.6407C69.9523 20.6407 69.4247 20.5635 68.9271 20.4091C68.4296 20.2461 68.0392 20.0445 67.7561 19.8043L68.1679 19.0836C68.4424 19.2895 68.7942 19.4697 69.2231 19.6241C69.652 19.7699 70.1024 19.8429 70.5743 19.8429C71.2177 19.8429 71.681 19.7442 71.9641 19.5469C72.2472 19.341 72.3887 19.0708 72.3887 18.7362C72.3887 18.4874 72.3072 18.2944 72.1442 18.1571C71.9898 18.0113 71.7839 17.904 71.5265 17.8354C71.2692 17.7582 70.9818 17.6938 70.6644 17.6424C70.3469 17.5909 70.0295 17.5308 69.7121 17.4622C69.4033 17.3936 69.1202 17.2949 68.8628 17.1662C68.6054 17.029 68.3952 16.8445 68.2322 16.6129C68.0778 16.3813 68.0006 16.0724 68.0006 15.6864C68.0006 15.3175 68.1036 14.9872 68.3094 14.6955C68.5153 14.4038 68.8156 14.1765 69.2102 14.0135C69.6134 13.8419 70.1024 13.7561 70.6772 13.7561C71.1148 13.7561 71.5523 13.8162 71.9898 13.9363C72.4273 14.0478 72.7876 14.1979 73.0707 14.3867L72.6718 15.1202C72.3716 14.9143 72.0499 14.7684 71.7067 14.6826C71.3635 14.5883 71.0204 14.5411 70.6772 14.5411C70.0681 14.5411 69.6177 14.6483 69.326 14.8628C69.0429 15.0687 68.9014 15.3346 68.9014 15.6606C68.9014 15.918 68.9786 16.1196 69.133 16.2655C69.296 16.4113 69.5062 16.5271 69.7636 16.6129C70.0295 16.6901 70.3169 16.7544 70.6258 16.8059C70.9432 16.8574 71.2563 16.9217 71.5651 16.9989C71.8826 17.0676 72.17 17.1662 72.4273 17.2949C72.6933 17.415 72.9035 17.5909 73.0579 17.8225C73.2209 18.0456 73.3024 18.3415 73.3024 18.7104C73.3024 19.1051 73.1908 19.4482 72.9678 19.7399C72.7533 20.023 72.4359 20.2461 72.0155 20.4091C71.6037 20.5635 71.1019 20.6407 70.5099 20.6407ZM77.115 20.6407C76.4802 20.6407 75.9912 20.4691 75.648 20.126C75.3049 19.7828 75.1333 19.2981 75.1333 18.6718V12.3277H76.047V18.6204C76.047 19.015 76.1456 19.3195 76.3429 19.534C76.5488 19.7485 76.8405 19.8557 77.218 19.8557C77.6212 19.8557 77.9558 19.7399 78.2217 19.5083L78.5434 20.1646C78.3633 20.3276 78.1445 20.4477 77.8871 20.5249C77.6383 20.6021 77.381 20.6407 77.115 20.6407ZM73.9237 14.5797V13.8205H78.1059V14.5797H73.9237ZM82.7217 20.6407C82.0697 20.6407 81.4821 20.4949 80.9587 20.2032C80.444 19.9029 80.0365 19.4954 79.7363 18.9807C79.436 18.4574 79.2859 17.8611 79.2859 17.192C79.2859 16.5142 79.436 15.918 79.7363 15.4033C80.0365 14.8885 80.444 14.4853 80.9587 14.1936C81.4735 13.902 82.0611 13.7561 82.7217 13.7561C83.3909 13.7561 83.9828 13.902 84.4976 14.1936C85.0209 14.4853 85.4284 14.8885 85.72 15.4033C86.0203 15.918 86.1704 16.5142 86.1704 17.192C86.1704 17.8611 86.0203 18.4574 85.72 18.9807C85.4284 19.4954 85.0209 19.9029 84.4976 20.2032C83.9742 20.4949 83.3823 20.6407 82.7217 20.6407ZM82.7217 19.83C83.2107 19.83 83.6439 19.7228 84.0214 19.5083C84.3989 19.2852 84.6949 18.9764 84.9093 18.5818C85.1324 18.1785 85.2439 17.7153 85.2439 17.192C85.2439 16.6601 85.1324 16.1968 84.9093 15.8022C84.6949 15.4076 84.3989 15.103 84.0214 14.8885C83.6439 14.6655 83.215 14.554 82.7346 14.554C82.2542 14.554 81.8252 14.6655 81.4477 14.8885C81.0703 15.103 80.77 15.4076 80.547 15.8022C80.3239 16.1968 80.2124 16.6601 80.2124 17.192C80.2124 17.7153 80.3239 18.1785 80.547 18.5818C80.77 18.9764 81.0703 19.2852 81.4477 19.5083C81.8252 19.7228 82.2499 19.83 82.7217 19.83ZM88.0358 20.5764V13.8205H88.9108V15.6606L88.8207 15.3389C89.0095 14.8242 89.3269 14.4339 89.773 14.1679C90.2191 13.8934 90.7724 13.7561 91.433 13.7561V14.644C91.3987 14.644 91.3644 14.644 91.3301 14.644C91.2957 14.6355 91.2614 14.6312 91.2271 14.6312C90.5151 14.6312 89.9574 14.8499 89.5542 15.2875C89.151 15.7164 88.9494 16.3298 88.9494 17.1276V20.5764H88.0358ZM93.4407 23.1372C93.1232 23.1372 92.8187 23.0857 92.527 22.9827C92.2439 22.8798 91.9994 22.7254 91.7935 22.5195L92.2182 21.8375C92.3898 22.0005 92.5742 22.1248 92.7715 22.2106C92.9774 22.305 93.2047 22.3522 93.4535 22.3522C93.7538 22.3522 94.0112 22.2664 94.2256 22.0948C94.4487 21.9318 94.6589 21.6401 94.8562 21.2198L95.2937 20.2289L95.3967 20.0874L98.1762 13.8205H99.077L95.6926 21.3871C95.5039 21.8246 95.2937 22.172 95.0621 22.4294C94.839 22.6868 94.5945 22.8669 94.3286 22.9699C94.0626 23.0814 93.7667 23.1372 93.4407 23.1372ZM95.2422 20.7694L92.1281 13.8205H93.0804L95.8342 20.023L95.2422 20.7694Z" fill="#1EAB5F"/>
<defs>
<filter id="filter0_i_1_304" x="0" y="0.740356" width="15.7562" height="19.5443" filterUnits="userSpaceOnUse" color-interpolation-filters="sRGB">
<feFlood flood-opacity="0" result="BackgroundImageFix"/>
<feBlend mode="normal" in="SourceGraphic" in2="BackgroundImageFix" result="shape"/>
<feColorMatrix in="SourceAlpha" type="matrix" values="0 0 0 0 0 0 0 0 0 0 0 0 0 0 0 0 0 0 127 0" result="hardAlpha"/>
<feOffset dx="3.94347"/>
<feGaussianBlur stdDeviation="1.97174"/>
<feComposite in2="hardAlpha" operator="arithmetic" k2="-1" k3="1"/>
<feColorMatrix type="matrix" values="0 0 0 0 0 0 0 0 0 0 0 0 0 0 0 0 0 0 0.5 0"/>
<feBlend mode="normal" in2="shape" result="effect1_innerShadow_1_304"/>
</filter>
</defs>
</svg>
