<svg width="27" height="42" viewBox="0 0 27 42" fill="none" xmlns="http://www.w3.org/2000/svg">
<path d="M26.4381 28.9103C26.1906 27.1873 25.8094 25.4764 25.2981 23.793C24.7778 22.1131 24.1383 20.4573 23.3615 18.8514C22.572 17.2525 21.6651 15.6966 20.6227 14.2165C20.3662 13.8444 20.0934 13.4808 19.8224 13.1172C19.5424 12.7589 19.2606 12.4022 18.9661 12.0559C18.379 11.3581 17.7702 10.6757 17.1234 10.0245C16.4821 9.36971 15.8136 8.73564 15.1181 8.13087C14.7749 7.82417 14.4154 7.53298 14.0595 7.23663C13.6964 6.95061 13.3332 6.66287 12.9593 6.38891C11.4707 5.28791 9.89895 4.27995 8.25498 3.39949C6.61461 2.51042 4.91283 1.73162 3.16949 1.05448L0.452418 0L0.378349 2.89465L0.277181 6.73868L0.259116 7.46923C0.24647 7.91377 0.239244 8.3583 0.228404 8.80284C0.204919 9.88316 0.185047 10.9635 0.165174 12.0438L0.0838789 16.6201L0.0351016 21.1947C0.0188425 22.7196 0.00258339 24.2444 0.00619652 25.7693C0.00619652 27.2941 -0.00644944 28.819 0.00438996 30.3439C0.020649 33.3936 0.0423278 36.4433 0.12543 39.4947L0.194079 42L2.71424 41.6864H2.71605L2.85876 41.6657L2.97258 41.6468L3.18756 41.6089L3.59765 41.5279C3.86683 41.471 4.12878 41.4107 4.39073 41.347C4.91102 41.2178 5.42047 41.0747 5.92451 40.9197C6.93257 40.6078 7.91354 40.2425 8.87282 39.8307C10.7896 39.0054 12.6124 37.9871 14.2907 36.7845C15.9708 35.5818 17.5046 34.1931 18.8396 32.6527C20.1747 31.1123 21.3074 29.4255 22.227 27.6542L22.7454 26.6515C22.5323 26.0984 22.3046 25.5505 22.0644 25.0112C21.7392 24.2737 21.3887 23.5501 21.0166 22.8471L19.2624 26.169C18.3645 27.6835 17.2968 29.093 16.0738 30.3559C14.8489 31.6189 13.4705 32.7354 11.9765 33.6865C10.4843 34.6393 8.87463 35.4285 7.19994 36.0453C6.41589 36.333 5.61739 36.5846 4.81166 36.7931C4.84779 34.6445 4.86405 32.4959 4.87489 30.3473C4.88573 28.8224 4.87309 27.2976 4.87309 25.7727C4.87489 24.2479 4.86044 22.723 4.84418 21.1981L4.7954 16.6236L4.71411 12.0438C4.70507 11.5528 4.69424 11.06 4.6852 10.5689C4.67256 9.87972 4.65991 9.19052 4.64365 8.49959C4.63643 8.15499 4.6292 7.81211 4.62017 7.46751L4.57681 5.79964C5.21091 6.05981 5.8414 6.33032 6.46106 6.61979C8.00206 7.33828 9.48886 8.15843 10.9142 9.06818C12.3324 9.98654 13.7 10.9859 14.97 12.0955C16.2472 13.1982 17.4233 14.4112 18.5235 15.6897C19.6255 16.9682 20.6173 18.3414 21.5098 19.7767C22.4112 21.2085 23.2061 22.7109 23.8908 24.2651C24.5827 25.8175 25.1699 27.4199 25.6432 29.0619C25.8834 29.8821 26.0948 30.7109 26.2719 31.55C26.4543 32.3873 26.6043 33.2333 26.7 34.0897C26.8084 32.3684 26.6729 30.6333 26.4381 28.9103ZM2.16504 37.3031C2.16143 37.3048 2.16324 37.3048 2.16504 37.3031V37.3031Z" fill="white"/>
</svg>
