<svg width="13" height="13" viewBox="0 0 13 13" fill="none" xmlns="http://www.w3.org/2000/svg">
<path d="M10.326 8.07553L11.9724 9.72192C12.3004 10.0499 12.3004 10.5817 11.9724 10.9097C10.1992 12.6829 7.39193 12.8824 5.38575 11.3778L5.2688 11.29C3.75551 10.1551 2.41121 8.81078 1.27624 7.29749L1.18853 7.18054C-0.316104 5.17436 -0.116598 2.36709 1.65663 0.593866C1.98461 0.265883 2.51638 0.265883 2.84436 0.593867L4.49076 2.24026C4.88128 2.63079 4.88128 3.26395 4.49076 3.65447L3.35611 4.78912C3.13588 5.00935 3.08129 5.34579 3.22057 5.62436C4.02576 7.23474 5.33154 8.54052 6.94192 9.34571C7.22049 9.485 7.55694 9.4304 7.77717 9.21017L8.91181 8.07553C9.30233 7.685 9.9355 7.685 10.326 8.07553Z" fill="#1EAB5F"/>
</svg>
